General                          : ChattChitto RG - Movies Release
==========
Complete name                    : Planet Hulk 2009 BDRip.mp4
Format                           : MPEG-4
Format profile                   : Base Media
Codec ID                         : isom
File size                        : 1.51 GiB
Duration                         : 1h 21mn
Overall bit rate                 : 2 662 Kbps
Encoded date                     : UTC 2010-02-10 20:29:35

Video
==========
ID                               : 1
Format                           : AVC
Format/Info                      : Advanced Video Codec
Format profile                   : High@L3.1
Format settings, CABAC           : Yes
Format settings, ReFrames        : 3 frames
Codec ID                         : avc1
Codec ID/Info                    : Advanced Video Coding
Duration                         : 1h 21mn
Bit rate mode                    : Variable
Bit rate                         : 2 300 Kbps
Maximum bit rate                 : 15.5 Mbps
Width                            : 1 280 pixels
Height                           : 720 pixels
Display aspect ratio             : 16:9/1.778
Frame rate mode                  : Constant
Frame rate                       : 23.976 fps
Resolution                       : 8 bits
Colorimetry                      : 4:2:0
Scan type                        : Progressive
Bits/(Pixel*Frame)               : 0.104
Stream size                      : 1.30 GiB (86%)
Writing library                  : x264 
Encoded date                     : UTC 2010-02-10 20:22:47

Audio
==========
ID                               : 2
Format                           : AAC
Format/Info                      : Advanced Audio Codec
Format version                   : Version 4
Format profile                   : LC
Format settings, SBR             : No
Codec ID                         : 40
Duration                         : 1h 21mn
Bit rate mode                    : Variable
Bit rate                         : 352.8 Kbps
Maximum bit rate                 : 431 Kbps
Channel(s)                       : 6 channels
Channel positions                : Front: L C R, Rear: L R, LFE
Sampling rate                    : 48.0 KHz
Stream size                      : 208 MiB (13%)
Encoded date                     : UTC 2010-02-10 20:30:27

Subtitles                        : English/Spanish [.srt files]



----------------------------------------------------
IMDB Link: http://www.imdb.com/title/tt1483025/
----------------------------------------------------


Screen Shots:
============== 
http://bayimg.com/pAkbeAACg 
http://bayimg.com/PAkbDaAcG 
http://bayimg.com/pAKBcaAcG 
http://bayimg.com/PaKbaAAcg 
http://bayimg.com/oakbpaaCG



Plot:
======
When Earth's superheroes exile the volatile Incredible Hulk to a distant planet called Sakaar, the muscle-bound green monster is sold into slavery and forced to compete in gladiatorial games for the planet's despotic Red King. But soon, the Hulk joins forces with his fellow slaves to fight for freedom -- and a chance to get revenge on his earthly foes. This animated film is based on the "Planet Hulk" storylines originally featured in Marvel comics.


Source:
========
Planet Hulk 2009 Blue-Ray 1080p MPEG-4 AVC/DTS-HD Master Audio 7.1 [14.5 Gb]


Notes:
=======
ChattChitto RG Encourages Burning this Film with ConvertXtoDVD.
Enhanced for your viewing pleasure ;)